<?xml version="1.0" encoding="utf-8"?>
<!-- Generator: Adobe Illustrator 28.0.0, SVG Export Plug-In . SVG Version: 6.00 Build 0)  -->
<svg version="1.1" id="圖層_1" xmlns="http://www.w3.org/2000/svg" xmlns:xlink="http://www.w3.org/1999/xlink" x="0px" y="0px"
	 viewBox="0 0 800 800" style="enable-background:new 0 0 800 800;" xml:space="preserve">
<g>
	<path d="M400,633.3c-59.5,0-118-18.7-174-55.5c-55.2-36.3-106.9-89.9-153.7-159.2c-7.6-11.3-7.6-26,0-37.3
		c46.8-69.3,98.5-122.8,153.7-159.2c55.9-36.8,114.5-55.5,174-55.5s118,18.7,174,55.5c55.2,36.3,106.9,89.9,153.7,159.2
		c7.6,11.3,7.6,26,0,37.3c-46.8,69.3-98.5,122.8-153.7,159.2C518,614.7,459.5,633.3,400,633.3z M140.6,400
		c38.2,52.9,79.2,93.9,122.1,122.2c44.9,29.5,91,44.5,137.3,44.5c46.2,0,92.4-15,137.3-44.5c42.9-28.2,83.9-69.3,122.1-122.2
		c-38.2-52.9-79.2-93.9-122.1-122.2c-44.9-29.5-91-44.5-137.3-44.5c-46.2,0-92.4,15-137.3,44.5C219.8,306.1,178.8,347.1,140.6,400z"
		/>
</g>
<g>
	<path d="M400,533.3c-73.5,0-133.3-59.8-133.3-133.3c0-73.5,59.8-133.3,133.3-133.3c73.5,0,133.3,59.8,133.3,133.3
		C533.3,473.5,473.5,533.3,400,533.3z M400,333.3c-36.8,0-66.7,29.9-66.7,66.7c0,36.8,29.9,66.7,66.7,66.7s66.7-29.9,66.7-66.7
		C466.7,363.2,436.8,333.3,400,333.3z"/>
</g>
</svg>
