<?xml version="1.0" encoding="utf-8"?>
<!-- Generator: Adobe Illustrator 28.0.0, SVG Export Plug-In . SVG Version: 6.00 Build 0)  -->
<svg version="1.1" id="圖層_1" xmlns="http://www.w3.org/2000/svg" xmlns:xlink="http://www.w3.org/1999/xlink" x="0px" y="0px"
	 viewBox="0 0 800 800" style="enable-background:new 0 0 800 800;" xml:space="preserve">
<g>
	<path d="M316.7,583.3c-2.5,0-5-0.3-7.4-0.8c-17.9-4.1-29.2-22-25.1-39.9l9.3-40.9c-30-8.5-58.8-20.4-86.1-35.5l-31.7,38.4
		c-11.7,14.2-32.7,16.2-46.9,4.5c-14.2-11.7-16.2-32.7-4.5-46.9l27.2-32.9c-28.4-21.9-54.3-46.9-77.2-74.7
		c-11.7-14.2-9.7-35.2,4.5-46.9c14.2-11.7,35.2-9.7,46.9,4.5c26.4,32,57.4,59.8,92.1,82.5c0.2,0.2,0.5,0.3,0.7,0.5
		c36.6,23.9,76.9,40.3,119.7,48.9c0.8,0.1,1.6,0.3,2.4,0.5c0.1,0,0.2,0,0.3,0.1c39.1,7.3,78.8,7.3,117.9,0c0.1,0,0.2,0,0.3-0.1
		c0.8-0.2,1.6-0.3,2.4-0.5c42.8-8.6,83.1-25,119.7-48.9c0.2-0.2,0.5-0.3,0.7-0.5c34.7-22.7,65.7-50.5,92.1-82.6
		c11.7-14.2,32.7-16.2,46.9-4.5c14.2,11.7,16.2,32.7,4.5,46.9c-22.9,27.8-48.8,52.8-77.2,74.7l27.2,32.9
		c11.7,14.2,9.7,35.2-4.5,46.9c-14.2,11.7-35.2,9.7-46.9-4.5l-31.7-38.4c-27.3,15.1-56.1,27-86.1,35.5l9.3,40.9
		c4.1,17.9-7.1,35.8-25.1,39.9c-17.9,4.1-35.8-7.1-39.9-25.1l-9.8-42.9c-27.3,2.9-54.8,2.9-82.1,0l-9.8,42.9
		C345.6,572.9,331.9,583.3,316.7,583.3z"/>
</g>
</svg>
